<?xml version="1.0" standalone="no"?>
<svg xmlns="http://www.w3.org/2000/svg" viewBox="0 0 119 33" width="119" height="33"><path fill="#000000" fill-rule="nonzero" d="M0.17 9.48L0.17 9.48Q0 9.14 0 8.53Q0 7.92 0.17 7.56L0.17 7.56Q3.14 6.43 7.22 3.94L7.22 3.94Q8.62 3.10 8.95 2.78L8.95 2.78Q9.17 3.05 9.47 3.64Q9.77 4.22 9.86 4.70L9.86 4.70Q8.04 5.42 5.36 6.82Q2.69 8.21 2.14 8.52L2.14 8.52Q3.26 9.14 5.54 10.33Q7.82 11.52 9.86 12.34L9.86 12.34Q9.77 12.82 9.47 13.40Q9.17 13.99 8.95 14.26L8.95 14.26Q8.62 13.94 7.22 13.10L7.22 13.10Q3.22 10.66 0.17 9.48ZM20.90 5.47L20.90 5.47L20.93 3.96Q20.93 2.52 20.83 1.63L20.83 1.63L19.87 1.56Q19.80 1.27 19.80 0.82Q19.80 0.36 19.82 0.22L19.82 0.22Q21.96 0.12 22.94 0L22.94 0L23.04 0.12Q22.68 3.26 22.68 8.22Q22.68 13.18 22.90 14.76L22.90 14.76L23.78 14.81Q23.83 15.34 23.83 15.59Q23.83 15.84 23.76 16.20L23.76 16.20Q22.82 16.25 21.14 16.44L21.14 16.44Q20.95 16.06 20.86 15.22L20.86 15.22Q19.20 16.73 17.51 16.73Q15.82 16.73 14.92 15.19Q14.02 13.66 14.02 10.84Q14.02 8.02 15.16 6.46Q16.30 4.90 18.43 4.90L18.43 4.90Q19.63 4.90 20.90 5.47ZM18.46 6.31L18.46 6.31Q16.06 6.31 16.06 11.09L16.06 11.09Q16.06 12.89 16.60 13.88Q17.14 14.88 18.10 14.88L18.10 14.88Q18.74 14.88 19.52 14.47Q20.30 14.06 20.88 13.44L20.88 13.44Q20.93 10.46 20.93 7.01L20.93 7.01Q19.39 6.31 18.46 6.31ZM30.02 11.04L30.02 11.04Q28.85 11.04 27.84 10.92L27.84 10.92Q27.89 15.00 30.55 15.00L30.55 15.00Q31.90 15.00 33.53 13.51L33.53 13.51Q34.22 14.23 34.42 15.41L34.42 15.41Q32.45 16.73 30.24 16.73Q28.03 16.73 26.95 15.20Q25.87 13.68 25.87 10.73Q25.87 7.78 27.08 6.34Q28.30 4.90 30.53 4.90L30.53 4.90Q32.18 4.90 33.26 5.90Q34.34 6.91 34.36 8.38Q34.37 9.84 34.10 10.46L34.10 10.46Q32.30 11.04 30.02 11.04ZM30.36 6.24L30.36 6.24Q28.13 6.24 27.86 9.53L27.86 9.53Q28.94 9.65 30.24 9.65Q31.54 9.65 32.26 9.41L32.26 9.41Q32.35 8.81 32.35 8.52L32.35 8.52Q32.35 7.46 31.81 6.85Q31.27 6.24 30.36 6.24ZM43.32 6.58L42.31 6.50Q42.26 6.26 42.26 5.87Q42.26 5.47 42.34 5.16L42.34 5.16Q43.06 5.18 44.34 5.18Q45.62 5.18 46.32 5.16L46.32 5.16Q46.39 5.47 46.39 5.83Q46.39 6.19 46.34 6.50L46.34 6.50L45.55 6.58Q42.53 13.61 41.83 16.37L41.83 16.37Q41.21 16.54 40.72 16.54Q40.22 16.54 40.06 16.51L40.06 16.51Q38.69 11.66 36.34 6.58L36.34 6.58L35.54 6.50Q35.50 6.22 35.50 5.84Q35.50 5.47 35.57 5.16L35.57 5.16Q36.26 5.18 37.64 5.18Q39.02 5.18 39.74 5.16L39.74 5.16Q39.82 5.47 39.82 5.84Q39.82 6.22 39.77 6.50L39.77 6.50L38.78 6.58Q39.26 9.67 40.99 13.70L40.99 13.70L41.09 13.70Q41.71 12.50 42.36 10.43Q43.01 8.35 43.32 6.58L43.32 6.58ZM62.66 7.97L62.66 7.97L62.64 10.30Q62.64 12.84 62.93 14.98L62.93 14.98L63.77 15.05Q63.82 15.43 63.82 15.71Q63.82 15.98 63.74 16.39L63.74 16.39Q62.90 16.37 61.76 16.37Q60.62 16.37 59.81 16.39L59.81 16.39Q59.74 16.03 59.74 15.76Q59.74 15.48 59.78 15.05L59.78 15.05L60.62 14.98Q60.82 12.38 60.82 10.37Q60.82 8.35 60.47 7.39Q60.12 6.43 59.06 6.43L59.06 6.43Q57.72 6.43 56.18 7.97L56.18 7.97L56.18 10.22Q56.18 13.18 56.40 14.98L56.40 14.98L57.29 15.05Q57.34 15.43 57.34 15.71Q57.34 15.98 57.26 16.39L57.26 16.39Q56.42 16.37 55.32 16.37Q54.22 16.37 53.40 16.39L53.40 16.39Q53.33 16.03 53.33 15.76Q53.33 15.48 53.38 15.05L53.38 15.05L54.22 14.98Q54.43 12.72 54.43 10.80L54.43 10.80L54.43 7.51Q54.43 3.19 54.31 1.63L54.31 1.63L53.35 1.56Q53.28 1.25 53.28 0.83Q53.28 0.41 53.30 0.22L53.30 0.22Q55.49 0.10 56.42 0L56.42 0L56.52 0.12Q56.18 2.98 56.18 6.55L56.18 6.55Q56.90 5.83 57.91 5.36Q58.92 4.90 59.83 4.90L59.83 4.90Q62.66 4.90 62.66 7.97ZM70.06 11.04L70.06 11.04Q68.88 11.04 67.87 10.92L67.87 10.92Q67.92 15.00 70.58 15.00L70.58 15.00Q71.93 15.00 73.56 13.51L73.56 13.51Q74.26 14.23 74.45 15.41L74.45 15.41Q72.48 16.73 70.27 16.73Q68.06 16.73 66.98 15.20Q65.90 13.68 65.90 10.73Q65.90 7.78 67.12 6.34Q68.33 4.90 70.56 4.90L70.56 4.90Q72.22 4.90 73.30 5.90Q74.38 6.91 74.39 8.38Q74.40 9.84 74.14 10.46L74.14 10.46Q72.34 11.04 70.06 11.04ZM70.39 6.24L70.39 6.24Q68.16 6.24 67.90 9.53L67.90 9.53Q68.98 9.65 70.27 9.65Q71.57 9.65 72.29 9.41L72.29 9.41Q72.38 8.81 72.38 8.52L72.38 8.52Q72.38 7.46 71.84 6.85Q71.30 6.24 70.39 6.24ZM86.28 7.97L86.28 7.97L86.26 10.30Q86.26 12.82 86.54 14.98L86.54 14.98L87.38 15.05Q87.43 15.58 87.43 15.78Q87.43 15.98 87.36 16.39L87.36 16.39Q86.69 16.37 85.34 16.37Q84 16.37 83.42 16.39L83.42 16.39Q83.35 16.03 83.35 15.71Q83.35 15.38 83.40 15.05L83.40 15.05L84.24 14.98Q84.43 12.17 84.43 10.16Q84.43 8.16 84.04 7.30Q83.64 6.43 82.68 6.43L82.68 6.43Q81.38 6.43 79.82 7.99L79.82 7.99Q79.80 8.62 79.80 10.91Q79.80 13.20 80.02 14.98L80.02 14.98L80.90 15.05Q80.95 15.58 80.95 15.78Q80.95 15.98 80.88 16.39L80.88 16.39Q80.21 16.37 78.91 16.37Q77.62 16.37 77.02 16.39L77.02 16.39Q76.94 16.03 76.94 15.71Q76.94 15.38 76.99 15.05L76.99 15.05L77.83 14.98Q78.05 12.58 78.05 10.57Q78.05 8.57 77.86 6.60L77.86 6.60L76.97 6.53Q76.90 6.12 76.90 5.72Q76.90 5.33 76.92 5.18L76.92 5.18Q78.14 5.16 79.90 4.97L79.90 4.97L80.02 5.09Q79.97 5.38 79.87 6.53L79.87 6.53Q80.62 5.78 81.60 5.34Q82.58 4.90 83.45 4.90L83.45 4.90Q86.28 4.90 86.28 7.97ZM89.30 15.05L90.14 14.98Q90.36 12.58 90.36 10.57Q90.36 8.57 90.17 6.60L90.17 6.60L89.28 6.53Q89.21 6.14 89.21 5.74Q89.21 5.33 89.23 5.18L89.23 5.18Q90.46 5.16 92.21 4.97L92.21 4.97L92.33 5.09Q92.30 5.23 92.18 6.50L92.18 6.50Q92.74 5.81 93.47 5.35Q94.20 4.90 94.91 4.90Q95.62 4.90 96.14 5.40Q96.67 5.90 96.67 6.72L96.67 6.72Q96.67 8.06 95.54 8.06L95.54 8.06Q94.90 8.06 94.51 7.64Q94.13 7.22 94.13 6.53L94.13 6.53Q94.08 6.50 93.96 6.50L93.96 6.50Q93.07 6.50 92.14 7.85L92.14 7.85Q92.11 8.52 92.11 10.86Q92.11 13.20 92.33 14.98L92.33 14.98L93.22 15.05Q93.26 15.58 93.26 15.78Q93.26 15.98 93.19 16.39L93.19 16.39Q92.52 16.37 91.22 16.37Q89.93 16.37 89.33 16.39L89.33 16.39Q89.26 16.03 89.26 15.71Q89.26 15.38 89.30 15.05L89.30 15.05ZM104.11 6.58L103.10 6.50Q103.06 6.26 103.06 5.87Q103.06 5.47 103.13 5.16L103.13 5.16Q103.85 5.18 105.13 5.18Q106.42 5.18 107.11 5.16L107.11 5.16Q107.18 5.47 107.18 5.83Q107.18 6.19 107.14 6.50L107.14 6.50L106.42 6.58Q105.77 8.33 104.75 11.40Q103.73 14.47 103.21 15.91Q102.70 17.35 102.25 18.24Q101.81 19.13 101.28 19.92L101.28 19.92Q100.27 21.41 98.89 21.41Q97.51 21.41 96.36 20.64L96.36 20.64Q96.46 19.25 97.15 18.65L97.15 18.65Q97.87 19.63 98.90 19.63L98.90 19.63Q100.01 19.63 101.35 16.51L101.35 16.51Q100.13 12.22 97.49 6.58L97.49 6.58L96.70 6.50Q96.65 6.22 96.65 5.84Q96.65 5.47 96.72 5.16L96.72 5.16Q97.42 5.18 98.80 5.18Q100.18 5.18 100.90 5.16L100.90 5.16Q100.97 5.47 100.97 5.84Q100.97 6.22 100.92 6.50L100.92 6.50L99.94 6.58Q100.39 9.24 102.29 13.70L102.29 13.70L102.38 13.70Q103.58 9.82 104.11 6.58L104.11 6.58ZM118.61 7.56L118.61 7.56Q118.78 7.92 118.78 8.53Q118.78 9.14 118.61 9.48L118.61 9.48Q115.56 10.66 111.53 13.10L111.53 13.10Q110.16 13.94 109.82 14.26L109.82 14.26Q109.61 13.99 109.31 13.40Q109.01 12.82 108.91 12.34L108.91 12.34Q110.95 11.52 113.23 10.33Q115.51 9.14 116.64 8.52L116.64 8.52Q115.54 7.90 114 7.13L114 7.13Q110.95 5.52 108.91 4.70L108.91 4.70Q109.01 4.22 109.31 3.64Q109.61 3.05 109.82 2.78L109.82 2.78Q110.16 3.10 111.53 3.94L111.53 3.94Q115.56 6.38 118.61 7.56Z"></path><line x1="35.632799999999996" y1="31.408" x2="83.14320000000001" y2="31.408" stroke="#000000" stroke-linecap="round"></line></svg>